<svg width="21" height="20" viewBox="0 0 21 20" fill="none" xmlns="http://www.w3.org/2000/svg">
<g clip-path="url(#clip0_11011_435)">
<path d="M14.6666 17.5001V15.8334C14.6666 14.9493 14.3154 14.1015 13.6903 13.4764C13.0652 12.8513 12.2173 12.5001 11.3333 12.5001H4.66659C3.78253 12.5001 2.93468 12.8513 2.30956 13.4764C1.68444 14.1015 1.33325 14.9493 1.33325 15.8334V17.5001" stroke="#FAFAFA" stroke-width="2" stroke-linecap="round" stroke-linejoin="round"/>
<path d="M8.00008 9.16673C9.84103 9.16673 11.3334 7.67434 11.3334 5.83339C11.3334 3.99245 9.84103 2.50006 8.00008 2.50006C6.15913 2.50006 4.66675 3.99245 4.66675 5.83339C4.66675 7.67434 6.15913 9.16673 8.00008 9.16673Z" stroke="#FAFAFA" stroke-width="2" stroke-linecap="round" stroke-linejoin="round"/>
<path d="M19.6667 17.5001V15.8334C19.6662 15.0948 19.4204 14.3774 18.9679 13.7937C18.5154 13.2099 17.8819 12.793 17.1667 12.6084" stroke="#FAFAFA" stroke-width="2" stroke-linecap="round" stroke-linejoin="round"/>
<path d="M13.8333 2.6084C14.5503 2.79198 15.1858 3.20898 15.6396 3.79366C16.0935 4.37833 16.3398 5.09742 16.3398 5.83757C16.3398 6.57771 16.0935 7.2968 15.6396 7.88147C15.1858 8.46615 14.5503 8.88315 13.8333 9.06673" stroke="#FAFAFA" stroke-width="2" stroke-linecap="round" stroke-linejoin="round"/>
</g>
<defs>
<clipPath id="clip0_11011_435">
<rect width="20" height="20" fill="white" transform="translate(0.5 6.10352e-05)"/>
</clipPath>
</defs>
</svg>
