<svg width="21" height="20" viewBox="0 0 21 20" fill="none" xmlns="http://www.w3.org/2000/svg">
<path d="M17.1667 7.5H9.66667C8.74619 7.5 8 8.24619 8 9.16667V16.6667C8 17.5871 8.74619 18.3333 9.66667 18.3333H17.1667C18.0871 18.3333 18.8333 17.5871 18.8333 16.6667V9.16667C18.8333 8.24619 18.0871 7.5 17.1667 7.5Z" stroke="#3485FF" stroke-width="2" stroke-linecap="round" stroke-linejoin="round"/>
<path d="M4.66675 12.5H3.83341C3.39139 12.5 2.96746 12.3244 2.6549 12.0118C2.34234 11.6993 2.16675 11.2754 2.16675 10.8333V3.33332C2.16675 2.8913 2.34234 2.46737 2.6549 2.15481C2.96746 1.84225 3.39139 1.66666 3.83341 1.66666H11.3334C11.7754 1.66666 12.1994 1.84225 12.5119 2.15481C12.8245 2.46737 13.0001 2.8913 13.0001 3.33332V4.16666" stroke="#3485FF" stroke-width="2" stroke-linecap="round" stroke-linejoin="round"/>
</svg>
